<?xml version="1.0" standalone="no"?>
<!DOCTYPE svg PUBLIC "-//W3C//DTD SVG 20010904//EN"
 "http://www.w3.org/TR/2001/REC-SVG-20010904/DTD/svg10.dtd">
<svg version="1.0" xmlns="http://www.w3.org/2000/svg"
 width="1024.000000pt" height="1024.000000pt" viewBox="0 0 1024.000000 1024.000000"
 preserveAspectRatio="xMidYMid meet">

<g transform="translate(0.000000,1024.000000) scale(0.100000,-0.100000)"
fill="#000000" stroke="none">
<path d="M5530 8056 c-311 -73 -648 -152 -750 -175 -655 -150 -752 -175 -827
-212 -99 -48 -164 -138 -183 -255 -6 -34 -10 -407 -10 -891 l0 -833 43 6 c23
3 164 25 312 48 l270 41 5 640 5 640 61 3 61 3 6 -83 c4 -46 7 -329 7 -630 l0
-547 28 4 c31 6 423 66 612 94 69 11 280 44 470 75 190 31 512 83 715 116 204
33 390 64 415 68 l45 7 3 818 c1 449 -1 817 -5 817 -5 0 -78 -16 -163 -35 -85
-19 -225 -51 -310 -70 -85 -19 -216 -49 -290 -65 -483 -109 -845 -189 -1135
-250 -132 -27 -301 -63 -375 -80 -216 -48 -392 -80 -436 -80 -79 0 -154 81
-139 151 10 43 60 97 103 109 20 5 282 66 582 136 523 120 641 147 1065 248
105 25 222 52 260 61 39 9 87 20 108 26 l37 10 0 109 c0 82 -3 110 -12 109 -7
0 -267 -60 -578 -133z m603 -1028 c8 -11 8 -24 0 -41 -12 -26 -61 -40 -413
-117 -74 -16 -206 -45 -293 -65 -185 -42 -221 -43 -225 -3 -5 39 21 51 208 94
91 20 278 63 415 95 138 31 261 57 274 56 13 -1 29 -10 34 -19z m-2209 -67 c3
-5 27 -19 53 -31 39 -18 65 -23 135 -22 93 0 115 -10 103 -47 -9 -28 -40 -34
-143 -29 -89 4 -135 20 -179 61 -13 11 -23 28 -23 37 0 30 41 53 54 31z m2337
-171 c27 -15 24 -55 -5 -78 -14 -10 -60 -26 -103 -35 -43 -9 -152 -32 -243
-51 -91 -19 -293 -62 -448 -96 -156 -33 -297 -60 -313 -60 -35 0 -55 30 -39
60 14 26 -43 13 925 224 110 24 201 45 203 45 2 1 12 -4 23 -9z m-2293 -40
c38 -15 76 -20 142 -20 79 0 91 -2 100 -20 8 -15 6 -24 -10 -40 -16 -16 -33
-20 -94 -20 -134 0 -250 52 -230 104 8 21 28 20 92 -4z"/>
<path d="M6080 7849 c-200 -50 -566 -135 -1005 -234 -137 -31 -369 -83 -515
-116 -146 -33 -299 -66 -340 -75 -141 -29 -150 -32 -150 -59 0 -45 27 -47 171
-14 247 57 522 120 729 165 404 89 611 135 980 219 206 46 386 87 400 91 l25
6 -39 34 c-22 19 -44 34 -50 33 -6 -1 -99 -23 -206 -50z"/>
<path d="M2518 6471 c-176 -6 -176 -6 -219 -36 -58 -41 -83 -94 -83 -170 1
-103 57 -180 149 -203 23 -6 138 -10 275 -9 230 2 236 3 279 27 61 35 91 94
91 180 -1 149 -85 223 -250 218 -36 -1 -145 -4 -242 -7z"/>
<path d="M3086 6359 c11 -29 11 -186 0 -214 -6 -17 1 -26 42 -52 64 -42 134
-118 165 -179 30 -59 79 -216 143 -454 25 -96 60 -224 76 -285 16 -60 50 -186
75 -280 25 -93 59 -219 75 -280 16 -60 69 -256 118 -435 48 -179 121 -451 160
-605 39 -154 84 -308 100 -343 57 -123 178 -216 315 -241 94 -17 2454 -15
2520 3 120 32 212 112 241 212 45 157 -22 312 -165 378 -46 21 -53 21 -1201
26 -1255 5 -1179 2 -1214 61 -17 28 -21 85 -8 106 4 7 118 26 282 48 431 57
1933 272 2057 295 70 12 125 42 174 93 65 66 61 56 228 597 33 107 71 233 85
280 41 137 112 367 145 470 40 127 53 211 40 267 -23 105 -102 203 -196 245
-78 34 -187 22 -923 -100 -775 -130 -1043 -173 -1270 -208 -91 -14 -232 -36
-315 -49 -586 -95 -733 -118 -910 -144 -110 -17 -215 -32 -234 -33 l-35 -3
-41 145 c-78 277 -144 411 -259 525 -76 75 -198 157 -257 172 -19 5 -20 3 -13
-18z m4186 -539 c27 -28 30 -36 26 -78 -3 -26 -31 -127 -63 -224 l-57 -178
-189 0 -189 0 0 224 0 223 183 30 c241 40 251 40 289 3z m-682 -275 l0 -205
-205 0 -205 0 0 173 0 174 178 27 c97 15 182 29 187 31 6 2 18 4 28 4 16 1 17
-15 17 -204z m-620 -50 l0 -155 -155 0 -155 0 0 129 0 129 73 12 c39 7 106 18
147 25 41 7 78 13 83 14 4 1 7 -69 7 -154z m-520 -290 l0 -356 -157 3 -158 3
-3 331 -2 331 117 17 c65 10 123 19 128 21 6 2 25 4 43 4 l32 1 0 -355z m-520
163 c0 -62 3 -204 7 -316 l6 -203 -164 3 c-90 2 -163 6 -161 11 1 4 2 134 2
290 l0 283 133 21 c199 31 177 42 177 -89z m-520 -249 l0 -269 -285 0 -284 0
-11 43 c-7 23 -31 116 -56 207 -24 90 -44 171 -44 180 0 12 62 25 333 66 182
28 335 49 340 47 4 -2 7 -125 7 -274z m1565 -124 l0 -140 -155 0 -155 0 -3
143 -3 143 158 -3 158 -3 0 -140z m615 0 l0 -145 -204 0 c-125 0 -206 4 -208
10 -1 5 -2 70 0 145 l3 135 205 0 204 0 0 -145z m529 138 c0 -5 -19 -69 -42
-143 l-42 -135 -115 0 -115 0 -3 129 c-1 72 0 136 2 143 4 10 42 13 161 13 85
0 155 -3 154 -7z m-2709 -793 l0 -320 -22 -4 c-13 -3 -77 -12 -143 -21 -66 -9
-130 -18 -143 -21 -13 -2 -24 1 -27 8 -4 16 -114 424 -149 560 -15 54 -26 102
-26 108 0 6 91 10 255 10 l255 0 0 -320z m527 38 c1 -153 -1 -280 -6 -282 -8
-5 -281 -46 -306 -46 -13 0 -15 44 -15 299 0 230 3 301 13 305 6 2 80 4 162 3
l150 -2 2 -277z m513 42 c0 -132 0 -243 0 -247 1 -9 -300 -52 -312 -46 -10 5
-11 517 -1 526 3 4 75 7 160 7 l153 0 0 -240z m528 36 c1 -110 -1 -203 -6
-208 -9 -9 -245 -48 -288 -48 l-24 0 0 224 c0 170 3 226 13 230 6 2 77 4 157
3 l145 -2 3 -199z m612 39 c0 -91 -1 -165 -2 -166 -31 -7 -405 -55 -410 -52
-10 5 -11 367 -1 376 3 4 98 7 210 7 l203 0 0 -165z m373 158 c3 -6 -70 -264
-76 -269 -1 -1 -21 -5 -44 -9 l-43 -7 0 139 c0 77 3 143 7 146 9 10 151 9 156
0z m-2673 -938 c0 -53 20 -135 46 -186 29 -58 110 -132 162 -147 29 -9 329
-12 1185 -12 855 0 1153 -3 1172 -12 50 -23 37 -96 -21 -118 -35 -14 -2354
-13 -2425 0 -67 13 -127 53 -156 105 -26 49 -116 376 -106 386 7 7 33 10 121
17 19 2 22 -3 22 -33z"/>
<path d="M6390 2873 c-82 -9 -163 -47 -226 -106 -78 -73 -114 -144 -121 -243
-10 -132 32 -241 126 -325 192 -171 510 -106 618 126 25 53 28 71 28 160 0 91
-3 106 -32 167 -17 36 -51 85 -75 109 -78 76 -211 123 -318 112z m182 -317
c54 -86 -29 -216 -138 -216 -51 0 -91 14 -121 42 -30 28 -29 40 2 32 42 -11
122 15 150 48 21 25 25 39 25 99 l0 70 31 -22 c17 -12 40 -36 51 -53z"/>
<path d="M4653 2852 c-101 -36 -186 -113 -232 -211 -23 -49 -26 -69 -26 -156
0 -90 3 -106 29 -160 94 -191 300 -269 504 -193 77 29 173 121 203 196 20 47
24 75 24 162 0 96 -3 110 -29 165 -38 76 -111 149 -184 183 -76 35 -210 42
-289 14z m241 -272 c27 -30 36 -49 36 -75 0 -141 -169 -219 -264 -122 l-31 32
60 5 c105 9 135 40 135 137 0 76 12 81 64 23z"/>
</g>
</svg>
