<svg width="265" height="218" viewBox="0 0 265 218" fill="none" xmlns="http://www.w3.org/2000/svg">
<path d="M245.049 155.75C245.049 144.092 235.246 135.06 223.029 132.962C223.916 131.588 224.101 130.051 223.76 128.662L226.505 128.558C226.803 128.547 227.056 128.548 227.364 128.549C227.555 128.55 227.767 128.551 228.025 128.549C228.61 128.545 229.331 128.523 230.094 128.396C232.801 127.945 235.862 126.411 238.296 124.773C239.55 123.93 240.736 122.993 241.721 122.04C242.657 121.134 243.605 120.029 244.139 118.824L244.207 118.672L244.257 118.514L244.399 118.066C244.477 117.849 244.546 117.63 244.606 117.41L260.476 67.3191C260.587 66.9665 260.704 66.6724 260.855 66.292C260.939 66.0792 261.034 65.8394 261.145 65.5472C261.412 64.8438 261.73 63.9264 261.861 62.886C261.866 62.8404 261.872 62.7947 261.877 62.749C262.033 61.8478 262.038 60.9481 261.907 60.0743C261.553 54.8375 256.549 51.5002 251.517 51.5002H105.573C100.378 51.5002 95.1636 55.0863 95.1636 60.636V61.8633C95.1636 67.414 100.378 70.9999 105.573 70.9999H105.584L105.595 70.9998L218.544 70.1565C228.251 70.0841 236.048 78.1416 235.657 87.8414L235.235 98.2912C234.882 107.044 227.936 114.095 219.19 114.58L117.691 120.208C110.4 120.613 103.665 116.315 100.96 109.532L77.0536 49.5943C76.7942 48.9439 76.634 48.3502 76.4334 47.6071C76.3189 47.1829 76.1913 46.71 76.0246 46.1501C75.6269 44.8145 75.0305 43.141 73.7987 41.6841C71.8352 39.362 68.7434 38 65.4337 38H29.4107C24.2151 38 19 41.586 19 47.1369V48.3641C19 53.9139 24.2147 57.5005 29.4107 57.5005H44.2783C51.3017 57.5005 57.602 61.8195 60.1346 68.3704L82.183 125.401C83.583 129.022 83.3216 133.039 82.3012 137.639C81.8474 139.685 81.2687 141.746 80.6654 143.895C80.5924 144.155 80.519 144.416 80.4454 144.679C79.7753 147.073 79.0935 149.573 78.6261 152.064C78.4006 153.266 78.2837 154.497 78.2837 155.75C78.2837 169.095 91.1307 179 105.739 179H107.467C122.075 179 134.922 169.095 134.922 155.75C134.922 154.749 135.279 153.705 135.846 152.964C136.395 152.245 136.969 152 137.468 152H185.659C186.158 152 186.732 152.245 187.281 152.964C187.847 153.705 188.204 154.749 188.204 155.75C188.204 169.095 201.051 179 215.659 179H217.594C232.203 179 245.049 169.095 245.049 155.75ZM212.659 155.751C212.659 156.932 212.971 157.986 213.357 158.86C211.852 158.095 211.084 156.787 211.084 155.751C211.084 154.714 211.852 153.406 213.358 152.64C212.971 153.515 212.659 154.569 212.659 155.751ZM101.163 155.751C101.163 154.463 102.348 152.757 104.66 152.191C104.269 153.139 103.89 154.363 103.89 155.75C103.89 157.138 104.269 158.361 104.66 159.309C102.348 158.744 101.163 157.038 101.163 155.751Z" fill="#236CDB" stroke="#236CDB" stroke-width="6"/>
<mask id="mask0_5_7" style="mask-type:alpha" maskUnits="userSpaceOnUse" x="0" y="0" width="190" height="218">
<path d="M190 0H0V218H190V169.33H149.606L141 103L149.606 39.0372H190V0Z" fill="#D9D9D9"/>
</mask>
<g mask="url(#mask0_5_7)">
<path d="M32 12.5H166.629C171.233 12.5 174.75 16.61 174.039 21.1589L161.627 100.521C161.113 103.803 161.106 107.145 161.606 110.429L174.143 192.872C174.834 197.412 171.32 201.5 166.729 201.5H32C27.8579 201.5 24.5 198.142 24.5 194V20C24.5 15.8579 27.8579 12.5 32 12.5Z" stroke="#236CDB" stroke-width="25"/>
<rect x="2.5" y="37.5" width="44" height="21" rx="10.5" fill="#236CDB" stroke="#236CDB" stroke-width="5"/>
<rect x="2.5" y="95.5" width="49" height="21" rx="10.5" fill="#236CDB" stroke="#236CDB" stroke-width="5"/>
<rect x="2.5" y="152.5" width="49" height="21" rx="10.5" fill="#236CDB" stroke="#236CDB" stroke-width="5"/>
</g>
</svg>
