<svg width="244" height="218" viewBox="0 0 244 218" fill="none" xmlns="http://www.w3.org/2000/svg">
<path d="M225.551 155.75C225.551 144.332 216.746 135.161 205.424 132.989C206.292 131.589 206.456 130.043 206.096 128.653L208.107 128.57C208.432 128.557 208.668 128.557 208.952 128.558C209.181 128.559 209.442 128.559 209.805 128.553C210.466 128.541 211.286 128.499 212.153 128.305C214.652 127.744 217.393 126.195 219.559 124.569C220.675 123.732 221.728 122.808 222.602 121.869C223.439 120.97 224.27 119.891 224.738 118.732L224.796 118.589L224.839 118.44L224.97 117.988C225.04 117.773 225.102 117.557 225.156 117.34L239.652 67.1352C239.751 66.792 239.859 66.4942 239.997 66.1111C240.065 65.9216 240.141 65.7112 240.227 65.4641C240.456 64.8082 240.727 63.9654 240.854 63.0226C240.868 62.9197 240.88 62.8163 240.89 62.7125C241.03 61.8324 241.034 60.955 240.916 60.102C240.608 55.0663 236.123 51.5002 231.18 51.5002H98.1678C93.0583 51.5002 88.4149 55.3269 88.4149 60.636V61.8633C88.4149 67.1733 93.0581 70.9999 98.1678 70.9999H98.1801L98.1923 70.9998L199.333 70.1713C209.022 70.0919 216.817 78.1133 216.461 87.7954L216.074 98.3323C215.752 107.074 208.849 114.145 200.118 114.676L111.005 120.098C103.489 120.556 96.5677 116.014 93.9953 108.938L72.3617 49.4232C72.1378 48.8073 71.9991 48.2328 71.8236 47.5057C71.7358 47.1421 71.6388 46.7403 71.5174 46.2762C71.1973 45.0531 70.7233 43.5177 69.7333 42.1103C67.9506 39.5762 64.9171 38 61.5851 38H28.7541C23.6437 38 19 41.8266 19 47.1369V48.3641C19 53.6732 23.6434 57.5005 28.7541 57.5005H40.6417C47.8527 57.5005 54.2792 62.0498 56.6756 68.851L76.9045 126.263C78.1269 129.732 77.8878 133.546 76.9581 137.857C76.501 139.977 75.9005 142.121 75.2737 144.358L75.248 144.45C74.6216 146.687 73.9693 149.022 73.4851 151.341C73.1866 152.771 73.0307 154.245 73.0307 155.75C73.0307 168.855 84.6301 179 98.3187 179H99.8942C113.583 179 125.182 168.855 125.182 155.75C125.182 154.745 125.545 153.71 126.118 152.976C126.674 152.265 127.274 152 127.82 152H170.574C171.12 152 171.72 152.265 172.275 152.976C172.849 153.71 173.212 154.745 173.212 155.75C173.212 168.854 184.811 179 198.499 179H200.263C213.952 179 225.551 168.855 225.551 155.75ZM195.499 155.751C195.499 156.77 195.72 157.698 196.016 158.499C195.106 157.769 194.595 156.739 194.595 155.751C194.595 154.762 195.106 153.732 196.016 153.002C195.72 153.803 195.499 154.731 195.499 155.751ZM94.414 155.751C94.414 154.385 95.3889 152.941 97.0406 152.318C96.6934 153.25 96.3679 154.428 96.3679 155.75C96.3679 157.072 96.6934 158.25 97.0407 159.183C95.3887 158.56 94.414 157.116 94.414 155.751Z" fill="#236CDB" stroke="#236CDB" stroke-width="6"/>
<circle cx="202" cy="156" r="12" fill="white"/>
<circle cx="99" cy="156" r="12" fill="white"/>
<mask id="mask0_5_7" style="mask-type:alpha" maskUnits="userSpaceOnUse" x="0" y="0" width="193" height="218">
<path d="M190 0H0V218H190V183.5V149H149.606L141 103L152 57L193 58L190 0Z" fill="#D9D9D9"/>
</mask>
<g mask="url(#mask0_5_7)">
<rect x="2.5" y="37.5" width="44" height="21" rx="10.5" fill="#236CDB" stroke="#236CDB" stroke-width="5"/>
<rect x="2.5" y="95.5" width="49" height="21" rx="10.5" fill="#236CDB" stroke="#236CDB" stroke-width="5"/>
<rect x="2.5" y="152.5" width="49" height="21" rx="10.5" fill="#236CDB" stroke="#236CDB" stroke-width="5"/>
<path d="M32 12.5H170C174.142 12.5 177.5 15.8579 177.5 20V106V194C177.5 198.142 174.142 201.5 170 201.5H32C27.8579 201.5 24.5 198.142 24.5 194V20C24.5 15.8579 27.8579 12.5 32 12.5Z" stroke="#236CDB" stroke-width="25"/>
</g>
</svg>